<svg width="200" height="162" xmlns="http://www.w3.org/2000/svg" version="1.1">
 <title>logo/white</title>

 <g>
  <title>Layer 1</title>
  <path d="m1186.7536,86.474zm-1130.26,29c-1.148,0.142 -2.315,0.296 -3.473,0.443c0.163,-1.01 0.328,-2.023 0.493,-3.046c1.169,-0.155 2.325,-0.298 3.487,-0.447c-0.171,1.026 -0.339,2.043 -0.507,3.05l0,0zm-1.211,7.312c-1.145,0.154 -2.288,0.306 -3.44,0.465c0.171,-1.065 0.344,-2.147 0.518,-3.231c1.157,-0.166 2.311,-0.328 3.461,-0.488c-0.182,1.1 -0.361,2.18 -0.539,3.254l0,0zm-1.163,7.041c-1.129,0.166 -2.271,0.342 -3.407,0.513c0.157,-0.991 0.315,-1.983 0.476,-2.995c1.149,-0.177 2.284,-0.342 3.425,-0.513c-0.167,1.013 -0.331,2.011 -0.494,2.995l0,0zm-1.195,7.275c-1.119,0.172 -2.235,0.341 -3.36,0.518c0.169,-1.074 0.339,-2.16 0.513,-3.264c1.13,-0.188 2.266,-0.381 3.39,-0.564c-0.186,1.128 -0.367,2.232 -0.543,3.31l0,0zm-4.238,-20.631c-1.132,0.151 -2.285,0.314 -3.424,0.469c0.174,-0.995 0.353,-2.004 0.531,-3.016c1.155,-0.162 2.294,-0.313 3.44,-0.47c-0.182,1.01 -0.366,2.021 -0.547,3.017l0,0zm-1.345,7.42c-1.126,0.162 -2.253,0.325 -3.386,0.492c0.184,-1.055 0.371,-2.12 0.56,-3.199c1.139,-0.174 2.279,-0.348 3.411,-0.517c-0.199,1.088 -0.392,2.157 -0.585,3.224l0,0zm-1.3,7.166c-1.112,0.174 -2.223,0.347 -3.341,0.526c0.17,-0.979 0.341,-1.963 0.516,-2.969c1.13,-0.185 2.243,-0.356 3.365,-0.535c-0.182,1.005 -0.361,1.995 -0.54,2.978l0,0zm-1.331,7.346c-1.091,0.178 -2.186,0.36 -3.281,0.543c0.179,-1.05 0.363,-2.117 0.551,-3.208c1.105,-0.195 2.221,-0.4 3.32,-0.589c-0.201,1.102 -0.397,2.188 -0.59,3.254l0,0zm-3.876,-20.856c-1.164,0.164 -2.344,0.34 -3.515,0.51c0.189,-0.99 0.379,-1.986 0.57,-2.985c1.186,-0.178 2.353,-0.342 3.531,-0.513c-0.197,1.002 -0.393,2.002 -0.586,2.988l0,0zm-1.481,7.527c-1.154,0.176 -2.314,0.356 -3.475,0.538c0.2,-1.049 0.4,-2.101 0.603,-3.164c1.167,-0.189 2.34,-0.382 3.5,-0.565c-0.212,1.075 -0.421,2.14 -0.628,3.191l0,0zm-1.438,7.297c-1.146,0.19 -2.279,0.369 -3.432,0.564c0.185,-0.969 0.372,-1.956 0.56,-2.942c1.158,-0.2 2.305,-0.392 3.457,-0.586c-0.198,1.005 -0.392,1.985 -0.585,2.964l0,0zm-1.465,7.414c-1.121,0.194 -2.255,0.398 -3.381,0.596c0.197,-1.04 0.395,-2.083 0.597,-3.147c1.141,-0.212 2.276,-0.417 3.412,-0.623c-0.214,1.08 -0.423,2.136 -0.628,3.174l0,0zm-6.821,-20.583c0.203,-0.981 0.407,-1.964 0.612,-2.956c1.142,-0.179 2.267,-0.348 3.4,-0.522c-0.208,0.992 -0.415,1.978 -0.621,2.961c-1.124,0.168 -2.259,0.344 -3.391,0.517l0,0zm1.787,7.114c-1.119,0.181 -2.249,0.369 -3.374,0.554c0.214,-1.036 0.43,-2.077 0.647,-3.129c1.129,-0.192 2.269,-0.393 3.391,-0.579c-0.223,1.059 -0.444,2.109 -0.664,3.154l0,0zm-1.567,7.43c-1.116,0.195 -2.229,0.387 -3.351,0.587c0.199,-0.964 0.403,-1.948 0.606,-2.932c1.125,-0.204 2.248,-0.406 3.368,-0.605c-0.208,0.988 -0.417,1.978 -0.623,2.95l0,0zm-1.586,7.482c-1.098,0.199 -2.212,0.413 -3.316,0.616c0.208,-1.01 0.421,-2.038 0.635,-3.075c1.12,-0.219 2.224,-0.421 3.338,-0.634c-0.222,1.046 -0.44,2.072 -0.657,3.093l0,0zm150.284,-35.462c-14.305,-1.332 -29.47,-2.005 -45.048,-2.005c-22.237,0 -45.904,1.347 -71.6,4.087c5.019,-34.313 11.405,-75.921 14.926,-101.245c0.276,-1.887 0.236,-3.072 -0.118,-3.503c-0.135,-0.166 -0.411,-0.301 -0.625,-0.301c-0.4,0 -1.07,0 -1.622,3.564c-4.497,28.313 -11.311,69.044 -16.777,101.946c-1.162,0.129 -2.326,0.26 -3.496,0.396c5.558,-34.262 12.18,-73.855 15.959,-97.639c0.316,-1.923 0.287,-3.131 -0.073,-3.554c-0.136,-0.166 -0.4,-0.302 -0.614,-0.302c-0.377,0 -1.075,0 -1.706,3.616c-4.668,26.214 -11.756,65.331 -17.748,98.374c-1.148,0.138 -2.295,0.276 -3.451,0.42c6.379,-36.068 14.418,-80.404 19.109,-106.717c0.53,-2.962 0.136,-3.449 0,-3.611c-0.135,-0.163 -0.399,-0.292 -0.625,-0.292c-0.377,0 -1.036,0 -1.751,3.629c-5.225,26.706 -13.905,71.337 -21.004,107.533c-1.179,0.151 -2.355,0.301 -3.543,0.459c6.574,-34.37 14.05,-73.081 18.661,-96.641c0.598,-2.985 0.192,-3.478 0.051,-3.638c-0.135,-0.169 -0.405,-0.301 -0.619,-0.301l-0.006,0c-0.365,0 -1.042,0.005 -1.83,3.674c-5.176,24.233 -13.221,63.157 -20.404,97.467c-1.131,0.154 -2.259,0.308 -3.399,0.467c7.366,-35.512 16.026,-76.99 21.466,-102.462c0.647,-3.052 0.253,-3.541 0.124,-3.702c-0.136,-0.172 -0.411,-0.301 -0.631,-0.301c-0.366,0.008 -1.042,0.008 -1.881,3.708c-5.741,24.909 -14.991,66.692 -23.257,103.354c-1.563,0.225 -3.12,0.446 -4.699,0.68c-1.751,0.265 -3.863,1.298 -4.307,2.692c-0.147,0.47 -0.074,0.938 0.202,1.312c0.4,0.538 1.177,0.825 2.202,0.825c0.344,0 0.716,-0.022 1.109,-0.101c1.491,-0.247 2.957,-0.479 4.435,-0.718c-0.222,0.982 -0.443,1.964 -0.664,2.937c-3.338,0.524 -6.698,1.064 -10.101,1.633c-1.779,0.31 -3.908,1.394 -4.364,2.759c-0.157,0.477 -0.085,0.943 0.181,1.324c0.382,0.523 1.12,0.808 2.128,0.808c0.377,0 0.799,-0.045 1.245,-0.127c3.318,-0.612 6.602,-1.2 9.863,-1.77c-0.237,1.046 -0.472,2.08 -0.706,3.112c-2.859,0.483 -5.737,0.979 -8.64,1.494c-1.813,0.326 -3.953,1.419 -4.342,2.787c-0.124,0.459 -0.039,0.907 0.226,1.262c0.395,0.51 1.132,0.78 2.146,0.78c0.427,0 0.883,-0.042 1.368,-0.141c2.751,-0.534 5.474,-1.045 8.188,-1.55c-0.225,0.989 -0.448,1.965 -0.67,2.938c-5.702,1.046 -11.465,2.144 -17.323,3.32c-1.841,0.383 -4.02,1.538 -4.426,2.903c-0.135,0.459 -0.062,0.909 0.197,1.261c0.377,0.504 1.082,0.769 2.044,0.769c0.473,0 0.974,-0.064 1.509,-0.185c5.733,-1.246 11.372,-2.409 16.959,-3.525c-0.233,1.019 -0.466,2.032 -0.694,3.028c-4.137,0.785 -8.299,1.591 -12.514,2.442c-1.881,0.375 -4.072,1.543 -4.471,2.923c-0.119,0.445 -0.051,0.879 0.208,1.225c0.372,0.492 1.087,0.763 2.067,0.763c0.484,0 1.019,-0.065 1.571,-0.191c4.064,-0.887 8.083,-1.733 12.077,-2.556c-0.539,2.333 -1.066,4.607 -1.574,6.782c-0.305,1.25 -0.175,2.34 0.332,2.979c0.316,0.388 0.755,0.614 1.245,0.614c0.147,0 0.304,-0.02 0.461,-0.057c1.324,-0.343 2.642,-2.12 3.059,-4.161c0.467,-2.271 0.961,-4.667 1.475,-7.165c1.097,-0.221 2.205,-0.45 3.296,-0.665c-0.894,4.194 -1.743,8.144 -2.53,11.772c-0.248,1.225 -0.106,2.286 0.411,2.922c0.316,0.395 0.778,0.62 1.273,0.62c0.152,0 0.309,-0.031 0.467,-0.065c1.33,-0.332 2.664,-2.148 3.031,-4.127c0.7,-3.727 1.466,-7.78 2.278,-12.072c1.119,-0.215 2.238,-0.429 3.352,-0.639c-0.044,0.221 -0.09,0.455 -0.134,0.673c-0.248,1.225 -0.084,2.286 0.439,2.931c0.332,0.4 0.777,0.614 1.267,0.614c0.136,0 0.276,-0.017 0.417,-0.054c1.335,-0.306 2.601,-2.035 2.939,-4.023c0.061,-0.354 0.125,-0.732 0.187,-1.092c1.087,-0.198 2.164,-0.387 3.246,-0.58c-0.553,3.055 -1.076,5.947 -1.557,8.604c-0.209,1.174 -0.034,2.213 0.49,2.838c0.343,0.409 0.817,0.637 1.334,0.637c0.141,0 0.277,-0.017 0.423,-0.048c1.346,-0.312 2.63,-2.075 2.923,-4.021c0.419,-2.782 0.878,-5.771 1.363,-8.9c1.121,-0.193 2.221,-0.368 3.335,-0.556c-0.245,1.503 -0.483,2.968 -0.706,4.345c-0.191,1.158 0.006,2.183 0.547,2.825c0.349,0.399 0.817,0.627 1.334,0.627c0.13,0 0.266,-0.014 0.395,-0.036c1.34,-0.287 2.607,-2.027 2.849,-3.967c0.194,-1.477 0.402,-3.037 0.616,-4.633c37.485,-6.098 71.892,-9.106 104.175,-9.106c5.339,0 10.695,0.099 15.899,0.262c0.383,0.022 0.743,0.025 1.075,0.025c2.54,0 2.771,-0.326 2.935,-0.582c0.134,-0.206 0.169,-0.518 0.084,-0.738c-0.124,-0.29 -0.361,-0.89 -4.381,-1.087c-7.034,-0.276 -14.293,-0.442 -21.575,-0.442c-30.347,0 -62.613,2.549 -97.678,7.737c0.149,-1.086 0.302,-2.19 0.458,-3.318c34.786,-5.416 66.806,-8.091 96.865,-8.091c5.248,0 10.509,0.073 15.628,0.245c0.371,0.012 0.731,0.022 1.063,0.022c2.479,0 2.715,-0.343 2.89,-0.59c0.13,-0.192 0.157,-0.505 0.085,-0.727c-0.113,-0.29 -0.339,-0.91 -4.303,-1.096c-6.977,-0.303 -14.17,-0.447 -21.383,-0.447c-28.099,0 -57.962,2.252 -90.304,6.809c0.14,-0.995 0.281,-1.993 0.426,-3.015c33.318,-4.821 63.856,-7.195 92.468,-7.195c8.954,0 17.841,0.244 26.401,0.715c0.541,0.028 1.053,0.05 1.499,0.05c1.863,0 2.184,-0.245 2.37,-0.546c0.141,-0.208 0.169,-0.524 0.073,-0.752c-0.118,-0.253 -0.377,-0.858 -4.212,-1.129c-10.486,-0.684 -21.434,-1.034 -32.512,-1.034c-26.538,0 -54.791,1.955 -85.523,5.929c0.153,-1.074 0.31,-2.164 0.468,-3.261c30.388,-4.064 58.292,-6.063 84.43,-6.063c10.267,0 20.404,0.31 30.147,0.935c0.58,0.034 1.114,0.053 1.588,0.053c1.554,0 1.982,-0.18 2.213,-0.51c0.135,-0.191 0.191,-0.484 0.118,-0.703c-0.096,-0.301 -0.287,-0.935 -4.106,-1.239c-11.73,-0.879 -24.024,-1.321 -36.538,-1.321c-24.005,0 -49.556,1.613 -77.28,4.884c0.148,-1.017 0.297,-2.045 0.447,-3.079c28.556,-3.507 54.7,-5.229 79.16,-5.229c13.144,0 26.017,0.504 38.26,1.509c0.665,0.059 1.28,0.079 1.786,0.079c1.369,0 1.741,-0.174 1.965,-0.49c0.12939,-0.203 0.169,-0.507 0.085,-0.729c-0.085,-0.251 -0.338,-0.879 -4.021,-1.25l0,0z" fill="#FFFFFF" id="svg_2" stroke="null"/>
 </g>
</svg>