<?xml version="1.0" encoding="utf-8"?>
<!-- Generator: Adobe Illustrator 28.1.0, SVG Export Plug-In . SVG Version: 6.00 Build 0)  -->
<svg version="1.1" id="LASSONDE" xmlns="http://www.w3.org/2000/svg"
	xmlns:xlink="http://www.w3.org/1999/xlink" x="0px" y="0px"
	viewBox="0 0 1276.2 162" style="enable-background:new 0 0 1276.2 162;" xml:space="preserve">
<style type="text/css">
	.st0{fill:#993466;}
	.st1{fill:#CC3333;}
	.st2{fill:#1C3664;}
	.st3{fill:#339999;}
	.st4{fill:#FFCD05;}
	.st5{fill:#929497;}
	.st6{fill:#E21D38;}
</style>
<g>
	<path class="st0" d="M20.4,118.8c-1,0-1.8-0.3-2.2-0.8c-0.3-0.4-0.3-0.8-0.2-1.3c0.4-1.4,2.6-2.4,4.3-2.7
		c41.6-6.2,78-9.2,111.2-9.2c15.6,0,30.7,0.7,45,2c3.7,0.4,3.9,1,4,1.3c0.1,0.2,0,0.5-0.1,0.7c-0.2,0.3-0.6,0.5-2,0.5
		c-0.5,0-1.1,0-1.8-0.1c-12.2-1-25.1-1.5-38.3-1.5c-35.4,0-74.3,3.6-118.9,11C21.1,118.7,20.8,118.8,20.4,118.8z"/>
	<path class="st1" d="M13.1,127.4c-1,0-1.7-0.3-2.1-0.8c-0.3-0.4-0.3-0.8-0.2-1.3c0.5-1.4,2.6-2.4,4.4-2.8
		c46.1-7.7,86.3-11.4,123-11.4c12.5,0,24.8,0.4,36.5,1.3c3.8,0.3,4,0.9,4.1,1.2c0.1,0.2,0,0.5-0.1,0.7c-0.2,0.3-0.7,0.5-2.2,0.5
		c-0.5,0-1,0-1.6-0.1c-9.7-0.6-19.9-0.9-30.1-0.9c-38.8,0-81.4,4.4-130.3,13.4C13.9,127.4,13.5,127.4,13.1,127.4z"/>
	<path class="st2" d="M12.9,134.9c-1,0-1.8-0.3-2.1-0.8c-0.3-0.4-0.3-0.8-0.2-1.3c0.4-1.4,2.5-2.5,4.3-2.8
		c48.8-8.7,91.5-12.9,130.4-12.9c11.1,0,22,0.3,32.5,1c3.8,0.3,4.1,0.9,4.2,1.1c0.1,0.2,0.1,0.5-0.1,0.8c-0.2,0.3-0.5,0.5-2.4,0.5
		c-0.4,0-1,0-1.5-0.1c-8.6-0.5-17.4-0.7-26.4-0.7c-41,0-86,4.9-137.4,14.8C13.8,134.9,13.4,134.9,12.9,134.9z"/>
	<path class="st3" d="M2.3,144.4c-1,0-1.7-0.3-2-0.8c-0.3-0.4-0.3-0.8-0.2-1.3c0.4-1.4,2.6-2.5,4.4-2.9
		c54.1-10.9,101.5-16.2,144.6-16.2c7.2,0,14.4,0.1,21.4,0.4c4,0.2,4.2,0.8,4.3,1.1c0.1,0.2,0,0.5-0.1,0.7c-0.2,0.2-0.4,0.6-2.9,0.6
		c-0.3,0-0.7,0-1.1,0c-5.1-0.2-10.4-0.2-15.6-0.2c-45.1,0-94.6,6-151.3,18.3C3.3,144.4,2.8,144.4,2.3,144.4z"/>
	<path class="st4" d="M5.4,151.1c-1,0-1.7-0.3-2.1-0.8C3,150,3,149.6,3.1,149.1c0.4-1.4,2.6-2.5,4.5-2.9
		c55.2-11.2,103.6-16.6,147.9-16.6c7.3,0,14.5,0.2,21.6,0.4c4,0.2,4.3,0.8,4.4,1.1c0.1,0.2,0.1,0.5-0.1,0.7
		c-0.2,0.3-0.4,0.6-2.9,0.6c-0.3,0-0.7,0-1.1,0c-5.2-0.2-10.6-0.3-15.9-0.3c-46.2,0-96.8,6.1-154.5,18.7
		C6.4,151,5.9,151.1,5.4,151.1z"/>
	<path class="st4" d="M19,158.7c-0.5,0-0.9-0.2-1.2-0.6c-0.5-0.6-0.6-1.7-0.3-3C26.9,114.7,42.1,45.3,50.3,9.9
		c0.8-3.7,1.5-3.7,1.9-3.7l0,0c0.2,0,0.5,0.1,0.6,0.3c0.1,0.2,0.5,0.7-0.1,3.7c-7.9,36.8-22.4,107-30.1,144.3
		c-0.4,2-1.7,3.8-3.1,4.2C19.3,158.7,19.2,158.7,19,158.7z"/>
	<path class="st3" d="M26.5,162c-0.5,0-1-0.2-1.3-0.6c-0.5-0.6-0.7-1.7-0.4-2.9C32.8,121.3,47.2,51.3,55,14.7
		c0.8-3.7,1.5-3.7,1.8-3.7c0,0,0,0,0,0c0.2,0,0.5,0.1,0.6,0.3c0.1,0.2,0.5,0.7-0.1,3.6C50.5,50.4,37,120.2,30,157.8
		c-0.4,2-1.7,3.8-3,4.1C26.8,162,26.6,162,26.5,162z"/>
	<path class="st2" d="M37.2,149.3c-0.5,0-0.9-0.2-1.3-0.6c-0.5-0.6-0.7-1.7-0.4-2.9C42.7,109.5,56.2,40,63.3,3.6C64,0,64.7,0,65,0
		c0.2,0,0.5,0.1,0.6,0.3c0.1,0.2,0.5,0.6,0,3.6c-6.4,35.8-19,105.1-25.1,141.3c-0.3,2-1.6,3.7-2.9,4
		C37.4,149.3,37.3,149.3,37.2,149.3z"/>
	<path class="st1" d="M44.2,155.6c-0.5,0-1-0.2-1.3-0.6c-0.5-0.6-0.7-1.7-0.5-2.8c6.1-33.6,18.4-101.3,25.4-140.3
		c0.6-3.6,1.3-3.6,1.7-3.6c0.2,0,0.5,0.1,0.6,0.3c0.4,0.4,0.4,1.6,0.1,3.6C64.6,46.8,53,115.3,47.6,151.6c-0.3,1.9-1.6,3.7-2.9,4
		C44.5,155.6,44.4,155.6,44.2,155.6z"/>
	<path class="st0" d="M53.4,149.9c-0.5,0-1-0.2-1.3-0.6c-0.5-0.6-0.7-1.7-0.5-2.8C56.7,114.7,68,48.1,74.5,7.4
		c0.6-3.6,1.2-3.6,1.6-3.6c0.2,0,0.5,0.1,0.6,0.3c0.4,0.4,0.4,1.6,0.1,3.5c-5,35.8-15.7,104-20.1,138.3c-0.2,1.9-1.5,3.7-2.8,4
		C53.7,149.9,53.6,149.9,53.4,149.9z"/>
</g>
<g>
	<path d="M117,24h9.9v46.6h23.6v8.9H117V24z"/>
	<path d="M181.7,24h8.6l23.9,55.6h-11.3l-5.2-12.7h-24.1l-5,12.7h-11.1L181.7,24z M194.3,58.4l-8.6-22.6L177,58.4H194.3z"/>
	<path d="M251.5,36c-2.1-3-5.9-4.4-9.7-4.4c-4.6,0-9.1,2-9.1,7.1c0,11.1,26.4,4.8,26.4,24.6c0,11.9-9.4,17.7-20.3,17.7
		c-6.9,0-13.7-2.1-18.2-7.5l7.5-7.2c2.4,3.7,6.6,5.8,11,5.8c4.6,0,9.7-2.5,9.7-7.6c0-12.2-26.4-5.2-26.4-25
		c0-11.5,10.2-16.8,20.5-16.8c5.8,0,11.6,1.6,15.9,5.7L251.5,36z"/>
	<path d="M299.4,36c-2.1-3-5.9-4.4-9.7-4.4c-4.6,0-9.1,2-9.1,7.1c0,11.1,26.4,4.8,26.4,24.6c0,11.9-9.4,17.7-20.3,17.7
		c-6.9,0-13.7-2.1-18.2-7.5l7.5-7.2c2.4,3.7,6.6,5.8,11,5.8c4.6,0,9.7-2.5,9.7-7.6c0-12.2-26.4-5.2-26.4-25
		c0-11.5,10.2-16.8,20.5-16.8c5.8,0,11.6,1.6,15.9,5.7L299.4,36z"/>
	<path d="M344.9,22.6c17.3-0.3,29.6,11.3,29.6,29.1c0,17.3-12.2,29-29.6,29.3c-17.1,0-29.3-11.6-29.3-29
		C315.6,34.2,327.8,22.6,344.9,22.6z M345,72c11.5,0,19.1-8.8,19.1-20.6c0-11.1-7.6-19.9-19.1-19.9c-11.5,0-19.1,8.8-19.1,19.9
		C326,63.3,333.6,72,345,72z"/>
	<path d="M383.7,24h13.1l26.9,41.3l0.2,0.2h-0.2l0.2-0.2V24h9.9v55.6h-12.6L393.7,37h-0.2v42.6h-9.9V24z"/>
	<path d="M449.1,24h21.9c14.6,0,28.2,8.9,28.2,27.8c0,19-16.1,27.8-29.4,27.8h-20.7V24z M466.3,70.6c12.4,0,22.5-5.3,22.5-18.8
		C488.8,38.3,480,33,468,33h-9v37.7H466.3z"/>
	<path d="M508.4,24h36.8V33h-26.9v13.7h25.5v8.9h-25.5v15.1h28.3v8.9h-38.2V24z"/>
</g>
<g>
	<path d="M206,120.1c0.8,1.3,2.2,1.8,3.6,1.8c1.5,0,3.4-1,3.4-2.9c0-3.9-8.4-1.5-8.4-8.2c0-2,1.7-4.8,5.8-4.8c1.9,0,3.6,0.4,4.9,2
		l-1.9,1.7c-0.6-0.9-1.7-1.5-3-1.5c-2.6,0-3.3,1.5-3.3,2.6c0,4.3,8.4,1.7,8.4,7.9c0,3.3-2.7,5.3-5.9,5.3c-2.2,0-4.3-0.7-5.5-2.4
		L206,120.1z"/>
	<path d="M232,110.2c-1-1.3-2.6-2-4.1-2c-3.8,0-6.4,3.1-6.4,7c0,3.6,2.4,6.7,6.4,6.7c2,0,3.5-0.9,4.5-2.3l2,1.5
		c-0.5,0.7-2.6,3-6.5,3c-5.4,0-8.8-4.5-8.8-8.8c0-5.3,3.6-9.1,8.9-9.1c2.2,0,4.6,0.8,6,2.7L232,110.2z"/>
	<path d="M238.3,106.5h2.3v7.1h8.9v-7.1h2.3v17.1h-2.3v-7.8h-8.9v7.8h-2.3V106.5z"/>
	<path d="M256.3,115.1c0-5.1,3.7-9,8.9-9c5.2,0,8.9,3.9,8.9,9c0,5.1-3.7,9-8.9,9C260,124.1,256.3,120.2,256.3,115.1z M271.7,115.1
		c0-3.7-2.5-6.8-6.5-6.8c-3.9,0-6.4,3.1-6.4,6.8c0,3.7,2.5,6.8,6.4,6.8C269.2,121.9,271.7,118.8,271.7,115.1z"/>
	<path d="M277.6,115.1c0-5.1,3.7-9,8.9-9c5.2,0,8.9,3.9,8.9,9c0,5.1-3.7,9-8.9,9C281.3,124.1,277.6,120.2,277.6,115.1z M293,115.1
		c0-3.7-2.5-6.8-6.4-6.8s-6.4,3.1-6.4,6.8c0,3.7,2.5,6.8,6.4,6.8S293,118.8,293,115.1z"/>
	<path d="M300,106.5h2.3v14.9h7.9v2.2H300V106.5z"/>
	<path d="M323.5,115.1c0-5.1,3.7-9,8.9-9s8.9,3.9,8.9,9c0,5.1-3.7,9-8.9,9S323.5,120.2,323.5,115.1z M338.8,115.1
		c0-3.7-2.5-6.8-6.4-6.8c-3.9,0-6.4,3.1-6.4,6.8c0,3.7,2.5,6.8,6.4,6.8C336.3,121.9,338.8,118.8,338.8,115.1z"/>
	<path d="M345.8,106.5h10.7v2.2h-8.4v5.4h7.8v2.2h-7.8v7.4h-2.3V106.5z"/>
	<path d="M370.7,106.5h11v2.2H373v5.1h8.1v2.2H373v5.5h9.2v2.2h-11.5V106.5z"/>
	<path d="M386.7,106.5h3l9.4,14.1h0v-14.1h2.3v17.1h-2.9l-9.5-14.1H389v14.1h-2.3V106.5z"/>
	<path d="M421.7,114.1v8.4c-1.7,1-4.4,1.6-6.5,1.6c-5.8,0-9.2-4.1-9.2-9c0-5.1,3.7-9,8.9-9c3.1,0,5,0.8,6.4,2.2l-1.6,1.8
		c-1.4-1.4-3-1.8-4.7-1.8c-3.9,0-6.4,3.1-6.4,6.8c0,3.9,2.9,6.8,6.6,6.8c1.6,0,3.2-0.3,4.2-0.9v-4.8h-3.8v-2.2H421.7z"/>
	<path d="M427.1,106.5h2.3v17.1h-2.3V106.5z"/>
	<path d="M435,106.5h3l9.4,14.1h0v-14.1h2.3v17.1h-2.9l-9.5-14.1h0v14.1H435V106.5z"/>
	<path d="M455.4,106.5h11v2.2h-8.7v5.1h8.1v2.2h-8.1v5.5h9.2v2.2h-11.5V106.5z"/>
	<path d="M471.4,106.5h11v2.2h-8.7v5.1h8.1v2.2h-8.1v5.5h9.2v2.2h-11.5V106.5z"/>
	<path d="M487.3,106.5h6c4.4,0,5.5,2.6,5.5,4.8c0,2.2-1.6,4.2-4.2,4.5l4.9,7.8h-2.9l-4.3-7.5h-2.6v7.5h-2.3V106.5z M489.6,114.1h3
		c1.8,0,3.7-0.4,3.7-2.8c0-2.3-1.8-2.8-3.7-2.8h-3V114.1z"/>
	<path d="M503.3,106.5h2.3v17.1h-2.3V106.5z"/>
	<path d="M511.2,106.5h3l9.4,14.1h0v-14.1h2.3v17.1h-2.9l-9.5-14.1h0v14.1h-2.3V106.5z"/>
	<path d="M546.2,114.1v8.4c-1.7,1-4.4,1.6-6.5,1.6c-5.8,0-9.2-4.1-9.2-9c0-5.1,3.7-9,8.9-9c3.1,0,5,0.8,6.4,2.2l-1.6,1.8
		c-1.4-1.4-3-1.8-4.7-1.8c-3.9,0-6.5,3.1-6.5,6.8c0,3.9,2.9,6.8,6.6,6.8c1.6,0,3.2-0.3,4.2-0.9v-4.8h-3.8v-2.2H546.2z"/>
</g>
<rect x="582.6" y="9" class="st5" width="3.6" height="144"/>
<g>
	<path d="M655.9,129h3.7c7.6,0,9.3-2.9,9.3-10.8V94l-29.3-52.5c-6-10.7-7.9-12.1-15.4-12.1h-1.4v-4.6c6.6,0.2,13,0.5,19.2,0.5
		c6.4,0,13-0.3,19.4-0.5v4.6h-2.7c-3.2,0-5.7,1.1-5.7,4.9c0,2.1,1.8,6.3,3.4,9L679,84.1L700,43.7c1.2-2.3,4.1-8.1,4.1-10.8
		c0-2.6-1.8-3.5-6-3.5h-2.9v-4.6c6.3,0.2,10.4,0.5,15.1,0.5c5,0,10.2-0.3,15.1-0.5v4.6h-3.8c-6.3,0-7.6,2-12.4,10.8l-27,50.6v27.3
		c0,9,3.4,10.8,9.3,10.8h3.1v4.6c-6.4-0.2-13-0.5-19.4-0.5c-6.7,0-13.7,0.3-19.4,0.5V129z"/>
	<path d="M793.2,22.8c30.4,0,57,24.6,57,56.4c0,26.9-20.8,56.4-57.4,56.4c-33,0-56.8-24.9-56.8-55.1
		C735.9,46.3,763.1,22.8,793.2,22.8z M792.8,29.2c-21.4,0-41.5,13.1-41.5,48.6c0,24.7,16.2,51.9,42.5,51.9
		c28.3,0,41.2-20.8,41.2-48.9C834.9,56.3,819.5,29.2,792.8,29.2z"/>
	<path d="M874.2,129h2.7c7,0,10.1-2.6,10.1-12.5V41.9c0-9.9-3.1-12.5-10.1-12.5h-2.7v-4.6c5.3,0.2,12.7,0.5,19.6,0.5
		c10.2,0,17.6-0.5,24.3-0.5c27,0,31.9,21.2,31.9,28.3c0,20-14.1,26.1-21.7,28.6l20.5,33.9c8.4,13.7,10.8,14.7,23.2,15.4v3.2
		c-2.9,0-5.7,0.2-8.6,0.2c-13.4,0-19.7-1.7-27.8-15l-17.9-29.2c-3.5-5.7-5.5-6-17.3-6.3v28.9c0,14.5,2.6,16.2,8.7,16.2h4.4l0,4.6
		c-6.7-0.2-13.1-0.5-19.9-0.5c-6.9,0-14.2,0.3-19.6,0.5V129z M900.4,77c2.6,0.9,6.4,1.1,10.4,1.1c13.7,0,25-6.3,25-22.1
		c0-6.7-4.6-25.4-25.8-25.4c-3.7,0-6.6,0.3-9.6,0.6V77z"/>
	<path d="M995.8,129h2.7c7,0,10.1-2.6,10.1-12.5V41.9c0-9.9-3.1-12.5-10.1-12.5h-2.7v-4.6c5.3,0.2,12.7,0.5,19.5,0.5
		c6.7,0,13.1-0.3,19.9-0.5v4.6h-4.4c-6.1,0-8.7,1.7-8.7,16.2v35.9l33.4-37.3c1.5-1.7,7.3-7.8,7.3-10.8c0-2.7-2.1-4-5-4h-2.7v-4.6
		c5.7,0.2,12.1,0.5,18,0.5c6.1,0,12.1-0.3,18.2-0.5v4.6h-2.7c-7.5,0-10.1,1.4-19.1,10.8l-29.5,31l39.4,46.1
		c8.6,10.1,13,11.6,19.2,11.6h2.3v4.6c-4.9-0.2-9.9-0.5-14.8-0.5c-4.9,0-9.9,0.3-14.8,0.5c-0.8-4.4-1.2-6.7-9.9-16.6L1030,81
		l-7.9,8.4v23.4c0,14.5,2.6,16.2,8.7,16.2h4.4v4.6c-6.7-0.2-13.1-0.5-19.9-0.5c-6.9,0-14.2,0.3-19.5,0.5V129z"/>
</g>
<g>
	<path class="st6" d="M1232.3,135.6c-24.4,0-45.6-15.1-45.6-48.1V9h-54.6v144h144v-52.5C1271.8,121.4,1256.6,135.6,1232.3,135.6z"/>
	<path class="st6" d="M1232.3,106.1c13.1,0,17.1-11.5,17.1-22.8V9h-33.5v74.3C1215.9,95.1,1220.1,106.1,1232.3,106.1z"/>
</g>
</svg>