<?xml version="1.0" encoding="UTF-8"?>
<svg width="1277px" height="162px" viewBox="0 0 1277 162" version="1.1" xmlns="http://www.w3.org/2000/svg" xmlns:xlink="http://www.w3.org/1999/xlink">
    <title>logo/white</title>
    <g stroke="none" stroke-width="1" fill="none" fill-rule="evenodd">
        <path d="M1232.3276,135.583 C1207.9006,135.583 1186.7536,120.482 1186.7536,87.474 L1186.7536,9 L1132.1746,9 L1132.1746,152.998 L1276.1726,152.998 L1276.1726,100.458 C1271.8436,121.395 1256.6206,135.583 1232.3276,135.583 L1232.3276,135.583 Z M1232.3276,106.104 C1245.4326,106.104 1249.4556,94.588 1249.4556,83.326 L1249.4556,9 L1215.9426,9 L1215.9426,83.326 C1215.9426,95.056 1220.1126,106.104 1232.3276,106.104 L1232.3276,106.104 Z M695.3136,24.802 L695.3136,29.384 L698.2166,29.384 C702.3396,29.384 704.1726,30.3 704.1726,32.897 C704.1726,35.646 701.2696,41.451 700.0486,43.742 L678.9706,84.065 L656.3646,43.284 C654.8376,40.534 653.0046,36.41 653.0046,34.271 C653.0046,30.454 655.4486,29.384 658.6556,29.384 L661.4056,29.384 L661.4056,24.802 C654.9906,24.955 648.4226,25.26 642.0076,25.26 C635.7446,25.26 629.3296,24.955 622.7626,24.802 L622.7626,29.384 L624.1366,29.384 C631.6206,29.384 633.6066,30.759 639.5636,41.451 L668.8906,93.993 L668.8906,118.126 C668.8906,126.069 667.2106,128.971 659.5726,128.971 L655.9066,128.971 L655.9066,133.554 C661.5576,133.401 668.5836,133.095 675.3046,133.095 C681.7196,133.095 688.2876,133.401 694.7026,133.554 L694.7026,128.971 L691.6476,128.971 C685.6906,128.971 682.3306,127.138 682.3306,118.126 L682.3306,90.786 L709.3656,40.228 C714.1006,31.37 715.4756,29.384 721.7376,29.384 L725.5566,29.384 L725.5566,24.802 C720.6686,24.955 715.4746,25.26 710.4346,25.26 C705.6996,25.26 701.5756,24.955 695.3136,24.802 L695.3136,24.802 Z M793.6786,129.735 C767.4076,129.735 751.2166,102.547 751.2166,77.803 C751.2166,42.367 771.3786,29.231 792.7626,29.231 C819.4916,29.231 834.9186,56.266 834.9186,80.857 C834.9186,108.962 821.9346,129.735 793.6786,129.735 L793.6786,129.735 Z M793.2206,22.816 C763.1306,22.816 735.9426,46.338 735.9426,80.399 C735.9426,110.642 759.7696,135.54 792.7626,135.54 C829.4196,135.54 850.1926,106.06 850.1926,79.177 C850.1926,47.407 823.6156,22.816 793.2206,22.816 L793.2206,22.816 Z M1079.3046,117.363 L1039.8956,71.235 L1069.3746,40.228 C1078.3866,30.759 1080.9836,29.384 1088.4686,29.384 L1091.2156,29.384 L1091.2156,24.802 C1085.1046,24.955 1079.1506,25.26 1073.0406,25.26 C1067.0826,25.26 1060.6696,24.955 1055.0176,24.802 L1055.0176,29.384 L1057.7656,29.384 C1060.6696,29.384 1062.8076,30.606 1062.8076,33.355 C1062.8076,36.41 1057.0046,42.52 1055.4766,44.2 L1022.0266,81.468 L1022.0266,45.575 C1022.0266,31.064 1024.6216,29.384 1030.7316,29.384 L1035.1596,29.384 L1035.1596,24.802 C1028.4406,24.955 1022.0236,25.26 1015.3046,25.26 C1008.4316,25.26 1001.1006,24.955 995.7546,24.802 L995.7546,29.384 L998.5036,29.384 C1005.5286,29.384 1008.5856,31.98 1008.5856,41.909 L1008.5856,116.446 C1008.5856,126.374 1005.5286,128.971 998.5036,128.971 L995.7546,128.971 L995.7546,133.554 C1001.1006,133.401 1008.4316,133.095 1015.3046,133.095 C1022.0236,133.095 1028.4406,133.401 1035.1596,133.554 L1035.1596,128.971 L1030.7316,128.971 C1024.6216,128.971 1022.0266,127.29 1022.0266,112.781 L1022.0266,89.411 L1029.9676,81.01 L1061.2786,116.904 C1069.9866,126.832 1070.4456,129.124 1071.2076,133.554 C1076.0946,133.401 1081.1366,133.095 1086.0226,133.095 C1090.9096,133.095 1095.9526,133.401 1100.8396,133.554 L1100.8396,128.971 L1098.5476,128.971 C1092.2866,128.971 1087.8556,127.443 1079.3046,117.363 L1079.3046,117.363 Z M910.8306,78.108 C906.8586,78.108 903.0406,77.955 900.4436,77.039 L900.4436,31.217 C903.4986,30.911 906.4006,30.606 910.0666,30.606 C931.2986,30.606 935.8806,49.24 935.8806,55.961 C935.8806,71.846 924.5766,78.108 910.8306,78.108 L910.8306,78.108 Z M948.7106,115.53 L928.2426,81.622 C935.8806,79.177 949.9316,73.068 949.9316,53.059 C949.9316,46.033 945.0446,24.802 918.0096,24.802 C911.2886,24.802 903.9566,25.26 893.7236,25.26 C886.8496,25.26 879.5186,24.955 874.1726,24.802 L874.1726,29.384 L876.9216,29.384 C883.9476,29.384 887.0036,31.98 887.0036,41.909 L887.0036,116.446 C887.0036,126.374 883.9476,128.971 876.9216,128.971 L874.1726,128.971 L874.1726,133.554 C879.5186,133.401 886.8496,133.095 893.7236,133.095 C900.4436,133.095 906.8586,133.401 913.5796,133.554 L913.5796,128.971 L909.1496,128.971 C903.0406,128.971 900.4436,127.29 900.4436,112.781 L900.4436,83.913 C912.2056,84.218 914.1906,84.523 917.7036,90.174 L935.5736,119.348 C943.6696,132.635 949.9316,134.315 963.3736,134.315 C966.2746,134.315 969.0246,134.164 971.9266,134.164 L971.9266,130.956 C959.5546,130.192 957.1106,129.276 948.7106,115.53 L948.7106,115.53 Z M582.6326,152.995 L586.2336,152.995 L586.2336,8.997 L582.6326,8.997 L582.6326,152.995 Z M345.8076,123.638 L348.1306,123.638 L348.1306,116.246 L355.9786,116.246 L355.9786,114.071 L348.1306,114.071 L348.1306,108.71 L356.5576,108.71 L356.5576,106.535 L345.8076,106.535 L345.8076,123.638 Z M286.5416,121.897 C282.6296,121.897 280.0916,118.831 280.0916,115.088 C280.0916,111.342 282.6296,108.275 286.5416,108.275 C290.4526,108.275 292.9916,111.342 292.9916,115.088 C292.9916,118.831 290.4526,121.897 286.5416,121.897 L286.5416,121.897 Z M286.5416,106.1 C281.3246,106.1 277.6286,110.015 277.6286,115.088 C277.6286,120.158 281.3246,124.073 286.5416,124.073 C291.7586,124.073 295.4546,120.158 295.4546,115.088 C295.4546,110.015 291.7586,106.1 286.5416,106.1 L286.5416,106.1 Z M415.5436,116.246 L419.3366,116.246 L419.3366,121.006 C418.2976,121.585 416.7516,121.897 415.1346,121.897 C411.3656,121.897 408.4896,118.953 408.4896,115.088 C408.4896,111.342 411.0276,108.275 414.9396,108.275 C416.6546,108.275 418.2726,108.735 419.6756,110.087 L421.3176,108.322 C419.9876,106.945 418.0816,106.1 414.9396,106.1 C409.7236,106.1 406.0266,110.015 406.0266,115.088 C406.0266,119.942 409.3826,124.073 415.1806,124.073 C417.2596,124.073 419.9876,123.516 421.6556,122.501 L421.6556,114.071 L415.5436,114.071 L415.5436,116.246 Z M399.1816,120.593 L399.1356,120.593 L389.7156,106.535 L386.6706,106.535 L386.6706,123.638 L388.9896,123.638 L388.9896,109.58 L389.0396,109.58 L398.5536,123.638 L401.5016,123.638 L401.5016,106.535 L399.1816,106.535 L399.1816,120.593 Z M373.0356,115.98 L381.1536,115.98 L381.1536,113.805 L373.0356,113.805 L373.0356,108.71 L381.7576,108.71 L381.7576,106.535 L370.7196,106.535 L370.7196,123.638 L382.1926,123.638 L382.1926,121.462 L373.0356,121.462 L373.0356,115.98 Z M265.2546,121.897 C261.3426,121.897 258.8046,118.831 258.8046,115.088 C258.8046,111.342 261.3426,108.275 265.2546,108.275 C269.1666,108.275 271.7046,111.342 271.7046,115.088 C271.7046,118.831 269.1666,121.897 265.2546,121.897 L265.2546,121.897 Z M265.2546,106.1 C260.0376,106.1 256.3416,110.015 256.3416,115.088 C256.3416,120.158 260.0376,124.073 265.2546,124.073 C270.4716,124.073 274.1676,120.158 274.1676,115.088 C274.1676,110.015 270.4716,106.1 265.2546,106.1 L265.2546,106.1 Z M227.8936,121.897 C223.9066,121.897 221.5156,118.831 221.5156,115.232 C221.5156,111.342 224.0516,108.275 227.8936,108.275 C229.4656,108.275 231.0576,108.976 232.0246,110.231 L233.9556,108.757 C232.5816,106.945 230.2136,106.1 227.9666,106.1 C222.6986,106.1 219.0536,109.918 219.0536,115.232 C219.0536,119.532 222.4116,124.073 227.8446,124.073 C231.7596,124.073 233.8116,121.779 234.3186,121.078 L232.3626,119.604 C231.3486,121.028 229.8496,121.897 227.8936,121.897 L227.8936,121.897 Z M302.2956,106.535 L299.9796,106.535 L299.9796,123.638 L310.1466,123.638 L310.1466,121.462 L302.2956,121.462 L302.2956,106.535 Z M332.3736,121.897 C328.4586,121.897 325.9236,118.831 325.9236,115.088 C325.9236,111.342 328.4586,108.275 332.3736,108.275 C336.2886,108.275 338.8236,111.342 338.8236,115.088 C338.8236,118.831 336.2886,121.897 332.3736,121.897 L332.3736,121.897 Z M332.3736,106.1 C327.1566,106.1 323.4606,110.015 323.4606,115.088 C323.4606,120.158 327.1566,124.073 332.3736,124.073 C337.5906,124.073 341.2866,120.158 341.2866,115.088 C341.2866,110.015 337.5906,106.1 332.3736,106.1 L332.3736,106.1 Z M249.4976,113.636 L240.6316,113.636 L240.6316,106.535 L238.3156,106.535 L238.3156,123.638 L240.6316,123.638 L240.6316,115.811 L249.4976,115.811 L249.4976,123.638 L251.8156,123.638 L251.8156,106.535 L249.4976,106.535 L249.4976,113.636 Z M207.0576,110.882 C207.0576,109.821 207.8336,108.275 210.3936,108.275 C211.7206,108.275 212.8566,108.879 213.4346,109.771 L215.3196,108.056 C214.0426,106.488 212.2526,106.1 210.3936,106.1 C206.2876,106.1 204.5986,108.879 204.5986,110.882 C204.5986,117.551 213.0256,115.11 213.0256,119.047 C213.0256,120.934 211.1416,121.897 209.6206,121.897 C208.2436,121.897 206.8196,121.319 205.9966,120.063 L204.0876,121.704 C205.2486,123.325 207.3486,124.073 209.5486,124.073 C212.8346,124.073 215.4886,122.092 215.4886,118.784 C215.4886,112.622 207.0576,115.207 207.0576,110.882 L207.0576,110.882 Z M503.2666,123.638 L505.5826,123.638 L505.5826,106.535 L503.2666,106.535 L503.2666,123.638 Z M489.6326,114.071 L489.6326,108.566 L492.6776,108.566 C494.5116,108.566 496.3456,108.998 496.3456,111.317 C496.3456,113.636 494.5116,114.071 492.6776,114.071 L489.6326,114.071 Z M498.8106,111.317 C498.8106,109.167 497.6996,106.535 493.3276,106.535 L487.3126,106.535 L487.3126,123.638 L489.6326,123.638 L489.6326,116.102 L492.2176,116.102 L496.5636,123.638 L499.4626,123.638 L494.6076,115.836 C497.1926,115.545 498.8106,113.492 498.8106,111.317 L498.8106,111.317 Z M427.0726,123.638 L429.3916,123.638 L429.3916,106.535 L427.0726,106.535 L427.0726,123.638 Z M540.0556,116.246 L543.8486,116.246 L543.8486,121.006 C542.8086,121.585 541.2636,121.897 539.6446,121.897 C535.8776,121.897 533.0016,118.953 533.0016,115.088 C533.0016,111.342 535.5386,108.275 539.4506,108.275 C541.1666,108.275 542.7836,108.735 544.1856,110.087 L545.8296,108.322 C544.4996,106.945 542.5936,106.1 539.4506,106.1 C534.2336,106.1 530.5386,110.015 530.5386,115.088 C530.5386,119.942 533.8926,124.073 539.6916,124.073 C541.7696,124.073 544.4996,123.516 546.1676,122.501 L546.1676,114.071 L540.0556,114.071 L540.0556,116.246 Z M523.6936,120.593 L523.6466,120.593 L514.2266,106.535 L511.1816,106.535 L511.1816,123.638 L513.5016,123.638 L513.5016,109.58 L513.5516,109.58 L523.0646,123.638 L526.0136,123.638 L526.0136,106.535 L523.6936,106.535 L523.6936,120.593 Z M447.4996,120.593 L447.4556,120.593 L438.0326,106.535 L434.9876,106.535 L434.9876,123.638 L437.3096,123.638 L437.3096,109.58 L437.3556,109.58 L446.8736,123.638 L449.8216,123.638 L449.8216,106.535 L447.4996,106.535 L447.4996,120.593 Z M473.6816,115.98 L481.7956,115.98 L481.7956,113.805 L473.6816,113.805 L473.6816,108.71 L482.3996,108.71 L482.3996,106.535 L471.3586,106.535 L471.3586,123.638 L482.8356,123.638 L482.8356,121.462 L473.6816,121.462 L473.6816,115.98 Z M457.7256,115.98 L465.8446,115.98 L465.8446,113.805 L457.7256,113.805 L457.7256,108.71 L466.4456,108.71 L466.4456,106.535 L455.4076,106.535 L455.4076,123.638 L466.8836,123.638 L466.8836,121.462 L457.7256,121.462 L457.7256,115.98 Z M518.2596,55.571 L543.7596,55.571 L543.7596,46.627 L518.2596,46.627 L518.2596,32.972 L545.1736,32.972 L545.1736,24.029 L508.3706,24.029 L508.3706,79.583 L546.5866,79.583 L546.5866,70.636 L518.2596,70.636 L518.2596,55.571 Z M466.3176,70.636 L458.9426,70.636 L458.9426,32.972 L467.9646,32.972 C480.0486,32.972 488.8396,38.311 488.8396,51.805 C488.8396,65.302 478.7156,70.636 466.3176,70.636 L466.3176,70.636 Z M499.1966,51.805 C499.1966,32.972 485.5416,24.029 470.9466,24.029 L449.0546,24.029 L449.0546,79.583 L469.7686,79.583 C483.1106,79.583 499.1966,70.794 499.1966,51.805 L499.1966,51.805 Z M423.8726,65.302 L423.7936,65.38 L423.7146,65.302 L396.8006,24.029 L383.6966,24.029 L383.6966,79.583 L393.5826,79.583 L393.5826,36.975 L393.7406,36.975 L421.2036,79.583 L433.7596,79.583 L433.7596,24.029 L423.8726,24.029 L423.8726,65.302 Z M345.0176,72.05 C333.5596,72.05 325.9496,63.262 325.9496,51.414 C325.9496,40.35 333.5596,31.562 345.0176,31.562 C356.5536,31.562 364.1636,40.35 364.1636,51.414 C364.1636,63.262 356.5536,72.05 345.0176,72.05 L345.0176,72.05 Z M344.9366,22.616 C327.8316,22.616 315.5926,34.228 315.5926,52.04 C315.5926,69.381 327.8316,80.997 344.9366,80.997 C362.2816,80.68 374.5226,69.068 374.5226,51.727 C374.5226,33.915 362.2816,22.302 344.9366,22.616 L344.9366,22.616 Z M232.6616,38.701 C232.6616,33.602 237.2126,31.562 241.7636,31.562 C245.6066,31.562 249.3736,32.972 251.4906,35.955 L258.7136,28.344 C254.3946,24.264 248.5896,22.616 242.7826,22.616 C232.5036,22.616 222.3016,27.951 222.3016,39.408 C222.3016,59.26 248.6696,52.276 248.6696,64.44 C248.6696,69.539 243.4896,72.05 238.9356,72.05 C234.5426,72.05 230.3866,69.933 227.9526,66.244 L220.4966,73.463 C225.0486,78.876 231.7966,80.997 238.7006,80.997 C249.6086,80.997 259.0236,75.19 259.0236,63.262 C259.0236,43.487 232.6616,49.845 232.6616,38.701 L232.6616,38.701 Z M177.0346,58.398 L185.7426,35.799 L194.2956,58.398 L177.0346,58.398 Z M190.2966,24.029 L181.7406,24.029 L157.5726,79.583 L168.6376,79.583 L173.6586,66.871 L197.7486,66.871 L202.9266,79.583 L214.2276,79.583 L190.2966,24.029 Z M150.5146,70.636 L126.8946,70.636 L126.8946,24.029 L117.0066,24.029 L117.0066,79.583 L150.5146,79.583 L150.5146,70.636 Z M286.8776,72.05 C282.4836,72.05 278.3246,69.933 275.8936,66.244 L268.4356,73.463 C272.9896,78.876 279.7376,80.997 286.6416,80.997 C297.5506,80.997 306.9656,75.19 306.9656,63.262 C306.9656,43.487 280.5996,49.845 280.5996,38.701 C280.5996,33.602 285.1506,31.562 289.7016,31.562 C293.5456,31.562 297.3146,32.972 299.4316,35.955 L306.6516,28.344 C302.3376,24.264 296.5276,22.616 290.7236,22.616 C280.4446,22.616 270.2426,27.951 270.2426,39.408 C270.2426,59.26 296.6076,52.276 296.6076,64.44 C296.6076,69.539 291.4286,72.05 286.8776,72.05 L286.8776,72.05 Z M56.4936,116.474 C55.3456,116.616 54.1786,116.77 53.0206,116.917 C53.1836,115.907 53.3486,114.894 53.5136,113.871 C54.6826,113.716 55.8386,113.573 57.0006,113.424 C56.8296,114.45 56.6616,115.467 56.4936,116.474 L56.4936,116.474 Z M55.2826,123.786 C54.1376,123.94 52.9946,124.092 51.8426,124.251 C52.0136,123.186 52.1866,122.104 52.3606,121.02 C53.5176,120.854 54.6716,120.692 55.8216,120.532 C55.6396,121.632 55.4606,122.712 55.2826,123.786 L55.2826,123.786 Z M54.1196,130.827 C52.9906,130.993 51.8486,131.169 50.7126,131.34 C50.8696,130.349 51.0276,129.357 51.1886,128.345 C52.3376,128.168 53.4726,128.003 54.6136,127.832 C54.4466,128.845 54.2826,129.843 54.1196,130.827 L54.1196,130.827 Z M52.9246,138.102 C51.8056,138.274 50.6896,138.443 49.5646,138.62 C49.7336,137.546 49.9036,136.46 50.0776,135.356 C51.2076,135.168 52.3436,134.975 53.4676,134.792 C53.2816,135.92 53.1006,137.024 52.9246,138.102 L52.9246,138.102 Z M48.6866,117.471 C47.5546,117.622 46.4016,117.785 45.2626,117.94 C45.4366,116.945 45.6156,115.936 45.7936,114.924 C46.9486,114.762 48.0876,114.611 49.2336,114.454 C49.0516,115.464 48.8676,116.475 48.6866,117.471 L48.6866,117.471 Z M47.3416,124.891 C46.2156,125.053 45.0886,125.216 43.9556,125.383 C44.1396,124.328 44.3266,123.263 44.5156,122.184 C45.6546,122.01 46.7946,121.836 47.9266,121.667 C47.7276,122.755 47.5346,123.824 47.3416,124.891 L47.3416,124.891 Z M46.0416,132.057 C44.9296,132.231 43.8186,132.404 42.7006,132.583 C42.8706,131.604 43.0416,130.62 43.2166,129.614 C44.3466,129.429 45.4596,129.258 46.5816,129.079 C46.3996,130.084 46.2206,131.074 46.0416,132.057 L46.0416,132.057 Z M44.7106,139.403 C43.6196,139.581 42.5246,139.763 41.4296,139.946 C41.6086,138.896 41.7926,137.829 41.9806,136.738 C43.0856,136.543 44.2016,136.338 45.3006,136.149 C45.0996,137.251 44.9036,138.337 44.7106,139.403 L44.7106,139.403 Z M40.8346,118.547 C39.6706,118.711 38.4906,118.887 37.3196,119.057 C37.5086,118.067 37.6986,117.071 37.8896,116.072 C39.0756,115.894 40.2426,115.73 41.4206,115.559 C41.2236,116.561 41.0276,117.561 40.8346,118.547 L40.8346,118.547 Z M39.3536,126.074 C38.1996,126.25 37.0396,126.43 35.8786,126.612 C36.0786,125.563 36.2786,124.511 36.4816,123.448 C37.6486,123.259 38.8216,123.066 39.9816,122.883 C39.7696,123.958 39.5606,125.023 39.3536,126.074 L39.3536,126.074 Z M37.9156,133.371 C36.7696,133.561 35.6366,133.74 34.4836,133.935 C34.6686,132.966 34.8556,131.979 35.0436,130.993 C36.2016,130.793 37.3486,130.601 38.5006,130.407 C38.3026,131.412 38.1086,132.392 37.9156,133.371 L37.9156,133.371 Z M36.4506,140.785 C35.3296,140.979 34.1956,141.183 33.0696,141.381 C33.2666,140.341 33.4646,139.298 33.6666,138.234 C34.8076,138.022 35.9426,137.817 37.0786,137.611 C36.8646,138.691 36.6556,139.747 36.4506,140.785 L36.4506,140.785 Z M29.6296,120.202 C29.8326,119.221 30.0366,118.238 30.2416,117.246 C31.3836,117.067 32.5086,116.898 33.6416,116.724 C33.4336,117.716 33.2266,118.702 33.0206,119.685 C31.8966,119.853 30.7616,120.029 29.6296,120.202 L29.6296,120.202 Z M31.4166,127.316 C30.2976,127.497 29.1676,127.685 28.0426,127.87 C28.2566,126.834 28.4726,125.793 28.6896,124.741 C29.8186,124.549 30.9586,124.348 32.0806,124.162 C31.8576,125.221 31.6366,126.271 31.4166,127.316 L31.4166,127.316 Z M29.8496,134.746 C28.7336,134.941 27.6206,135.133 26.4986,135.333 C26.6976,134.369 26.9016,133.385 27.1046,132.401 C28.2296,132.197 29.3526,131.995 30.4726,131.796 C30.2646,132.784 30.0556,133.774 29.8496,134.746 L29.8496,134.746 Z M28.2636,142.228 C27.1656,142.427 26.0516,142.641 24.9476,142.844 C25.1556,141.834 25.3686,140.806 25.5826,139.769 C26.7026,139.55 27.8066,139.348 28.9206,139.135 C28.6986,140.181 28.4806,141.207 28.2636,142.228 L28.2636,142.228 Z M178.5476,106.766 C164.2426,105.434 149.0776,104.761 133.4996,104.761 C111.2626,104.761 87.5956,106.108 61.8996,108.848 C66.9186,74.535 73.3046,32.927 76.8256,7.603 C77.1016,5.716 77.0616,4.531 76.7076,4.1 C76.5726,3.934 76.2966,3.799 76.0826,3.799 C75.6826,3.799 75.0126,3.799 74.4606,7.363 C69.9636,35.676 63.1496,76.407 57.6836,109.309 C56.5216,109.438 55.3576,109.569 54.1876,109.705 C59.7456,75.443 66.3676,35.85 70.1466,12.066 C70.4626,10.143 70.4336,8.935 70.0736,8.512 C69.9376,8.346 69.6736,8.21 69.4596,8.21 C69.0826,8.21 68.3846,8.21 67.7536,11.826 C63.0856,38.04 55.9976,77.157 50.0056,110.2 C48.8576,110.338 47.7106,110.476 46.5546,110.62 C52.9336,74.552 60.9726,30.216 65.6636,3.903 C66.1936,0.941 65.7996,0.454 65.6636,0.292 C65.5286,0.129 65.2646,0 65.0386,0 C64.6616,0 64.0026,0 63.2876,3.629 C58.0626,30.335 49.3826,74.966 42.2836,111.162 C41.1046,111.313 39.9286,111.463 38.7406,111.621 C45.3146,77.251 52.7906,38.54 57.4016,14.98 C57.9996,11.995 57.5936,11.502 57.4526,11.342 C57.3176,11.173 57.0476,11.041 56.8336,11.041 L56.8276,11.041 C56.4626,11.041 55.7856,11.046 54.9976,14.715 C49.8216,38.948 41.7766,77.872 34.5936,112.182 C33.4626,112.336 32.3346,112.49 31.1946,112.649 C38.5606,77.137 47.2206,35.659 52.6606,10.187 C53.3076,7.135 52.9136,6.646 52.7846,6.485 C52.6486,6.313 52.3736,6.184 52.1536,6.184 C51.7876,6.192 51.1116,6.192 50.2726,9.892 C44.5316,34.801 35.2816,76.584 27.0156,113.246 C25.4526,113.471 23.8956,113.692 22.3166,113.926 C20.5656,114.191 18.4536,115.224 18.0096,116.618 C17.8626,117.088 17.9356,117.556 18.2116,117.93 C18.6116,118.468 19.3886,118.755 20.4136,118.755 C20.7576,118.755 21.1296,118.733 21.5226,118.654 C23.0136,118.407 24.4796,118.175 25.9576,117.936 C25.7356,118.918 25.5146,119.9 25.2936,120.873 C21.9556,121.397 18.5956,121.937 15.1926,122.506 C13.4136,122.816 11.2846,123.9 10.8286,125.265 C10.6716,125.742 10.7436,126.208 11.0096,126.589 C11.3916,127.112 12.1296,127.397 13.1376,127.397 C13.5146,127.397 13.9366,127.352 14.3826,127.27 C17.7006,126.658 20.9846,126.07 24.2456,125.5 C24.0086,126.546 23.7736,127.58 23.5396,128.612 C20.6806,129.095 17.8026,129.591 14.8996,130.106 C13.0866,130.432 10.9466,131.525 10.5576,132.893 C10.4336,133.352 10.5186,133.8 10.7836,134.155 C11.1786,134.665 11.9156,134.935 12.9296,134.935 C13.3566,134.935 13.8126,134.893 14.2976,134.794 C17.0486,134.26 19.7716,133.749 22.4856,133.244 C22.2606,134.233 22.0376,135.209 21.8156,136.182 C16.1136,137.228 10.3506,138.326 4.4926,139.502 C2.6516,139.885 0.4726,141.04 0.0666,142.405 C-0.0684,142.864 0.0046,143.314 0.2636,143.666 C0.6406,144.17 1.3456,144.435 2.3076,144.435 C2.7806,144.435 3.2816,144.371 3.8166,144.25 C9.5496,143.004 15.1886,141.841 20.7756,140.725 C20.5426,141.744 20.3096,142.757 20.0816,143.753 C15.9446,144.538 11.7826,145.344 7.5676,146.195 C5.6866,146.57 3.4956,147.738 3.0966,149.118 C2.9776,149.563 3.0456,149.997 3.3046,150.343 C3.6766,150.835 4.3916,151.106 5.3716,151.106 C5.8556,151.106 6.3906,151.041 6.9426,150.915 C11.0066,150.028 15.0256,149.182 19.0196,148.359 C18.4806,150.692 17.9536,152.966 17.4456,155.141 C17.1406,156.391 17.2706,157.481 17.7776,158.12 C18.0936,158.508 18.5326,158.734 19.0226,158.734 C19.1696,158.734 19.3266,158.714 19.4836,158.677 C20.8076,158.334 22.1256,156.557 22.5426,154.516 C23.0096,152.245 23.5036,149.849 24.0176,147.351 C25.1146,147.13 26.2226,146.901 27.3136,146.686 C26.4196,150.88 25.5706,154.83 24.7836,158.458 C24.5356,159.683 24.6776,160.744 25.1946,161.38 C25.5106,161.775 25.9726,162 26.4676,162 C26.6196,162 26.7766,161.969 26.9346,161.935 C28.2646,161.603 29.5986,159.787 29.9656,157.808 C30.6656,154.081 31.4316,150.028 32.2436,145.736 C33.3626,145.521 34.4816,145.307 35.5956,145.097 C35.5516,145.318 35.5056,145.552 35.4616,145.77 C35.2136,146.995 35.3776,148.056 35.9006,148.701 C36.2326,149.101 36.6776,149.315 37.1676,149.315 C37.3036,149.315 37.4436,149.298 37.5846,149.261 C38.9196,148.955 40.1856,147.226 40.5236,145.238 C40.5846,144.884 40.6486,144.506 40.7106,144.146 C41.7976,143.948 42.8746,143.759 43.9566,143.566 C43.4036,146.621 42.8806,149.513 42.3996,152.17 C42.1906,153.344 42.3656,154.383 42.8896,155.008 C43.2326,155.417 43.7066,155.645 44.2236,155.645 C44.3646,155.645 44.5006,155.628 44.6466,155.597 C45.9926,155.285 47.2766,153.522 47.5696,151.576 C47.9886,148.794 48.4476,145.805 48.9326,142.676 C50.0536,142.483 51.1536,142.308 52.2676,142.12 C52.0226,143.623 51.7846,145.088 51.5616,146.465 C51.3706,147.623 51.5676,148.648 52.1086,149.29 C52.4576,149.689 52.9256,149.917 53.4426,149.917 C53.5726,149.917 53.7086,149.903 53.8376,149.881 C55.1776,149.594 56.4446,147.854 56.6866,145.914 C56.8806,144.437 57.0886,142.877 57.3026,141.281 C94.7876,135.183 129.1946,132.175 161.4776,132.175 C166.8166,132.175 172.1726,132.274 177.3766,132.437 C177.7596,132.459 178.1196,132.462 178.4516,132.462 C180.9916,132.462 181.2226,132.136 181.3866,131.88 C181.5206,131.674 181.5556,131.362 181.4706,131.142 C181.3466,130.852 181.1096,130.252 177.0896,130.055 C170.0556,129.779 162.7966,129.613 155.5146,129.613 C125.1676,129.613 92.9016,132.162 57.8366,137.35 C57.9856,136.264 58.1386,135.16 58.2946,134.032 C93.0806,128.616 125.1006,125.941 155.1596,125.941 C160.4076,125.941 165.6686,126.014 170.7876,126.186 C171.1586,126.198 171.5186,126.208 171.8506,126.208 C174.3296,126.208 174.5656,125.865 174.7406,125.618 C174.8706,125.426 174.8976,125.113 174.8256,124.891 C174.7126,124.601 174.4866,123.981 170.5226,123.795 C163.5456,123.492 156.3526,123.348 149.1396,123.348 C121.0406,123.348 91.1776,125.6 58.8356,130.157 C58.9756,129.162 59.1166,128.164 59.2616,127.142 C92.5796,122.321 123.1176,119.947 151.7296,119.947 C160.6836,119.947 169.5706,120.191 178.1306,120.662 C178.6716,120.69 179.1836,120.712 179.6296,120.712 C181.4926,120.712 181.8136,120.467 181.9996,120.166 C182.1406,119.958 182.1686,119.642 182.0726,119.414 C181.9546,119.161 181.6956,118.556 177.8606,118.285 C167.3746,117.601 156.4266,117.251 145.3486,117.251 C118.8106,117.251 90.5576,119.206 59.8256,123.18 C59.9786,122.106 60.1356,121.016 60.2936,119.919 C90.6816,115.855 118.5856,113.856 144.7236,113.856 C154.9906,113.856 165.1276,114.166 174.8706,114.791 C175.4506,114.825 175.9846,114.844 176.4586,114.844 C178.0126,114.844 178.4406,114.664 178.6716,114.334 C178.8066,114.143 178.8626,113.85 178.7896,113.631 C178.6936,113.33 178.5026,112.696 174.6836,112.392 C162.9536,111.513 150.6596,111.071 138.1456,111.071 C114.1406,111.071 88.5896,112.684 60.8656,115.955 C61.0136,114.938 61.1626,113.91 61.3126,112.876 C89.8686,109.369 116.0126,107.647 140.4726,107.647 C153.6166,107.647 166.4896,108.151 178.7326,109.156 C179.3976,109.215 180.0126,109.235 180.5186,109.235 C181.8876,109.235 182.2596,109.061 182.4836,108.745 C182.612992,108.542 182.6526,108.238 182.5686,108.016 C182.4836,107.765 182.2306,107.137 178.5476,106.766 L178.5476,106.766 Z" fill="#FFFFFF"></path>
    </g>
</svg>
